<svg xmlns="http://www.w3.org/2000/svg" viewBox="0 0 854 540" width="100%">
  <defs>
    <style>
      text { font-family: "JetBrains Mono", "Fira Code", "Cascadia Code", ui-monospace, monospace; font-size: 13.5px; }
    </style>
  </defs>
  <rect width="854" height="540" rx="12" fill="#0b0d12" stroke="#2a2e3d" stroke-width="2"/>
  <rect x="0" y="0" width="854" height="36" rx="12" fill="#141824"/>
  <rect x="0" y="24" width="854" height="12" fill="#141824"/>
  <circle cx="20" cy="18" r="5.5" fill="#ff5f56"/>
  <circle cx="38" cy="18" r="5.5" fill="#ffbd2e"/>
  <circle cx="56" cy="18" r="5.5" fill="#27c93f"/>
  <text x="427" y="22" fill="#7a8199" font-size="12" text-anchor="middle">resonate — We Don't Talk Anymore</text>
  <g><text x="22.0" y="54.0" fill="rgb(255,0,51)"  >╭─</text>
<text x="39.6" y="54.0" fill="rgb(180,0,35)" font-weight="700" >&#160;</text>
<text x="48.4" y="54.0" fill="rgb(197,0,39)" font-weight="700" >R</text>
<text x="57.2" y="54.0" fill="rgb(213,0,42)" font-weight="700" >E</text>
<text x="66.0" y="54.0" fill="rgb(230,0,46)" font-weight="700" >S</text>
<text x="74.8" y="54.0" fill="rgb(247,0,49)" font-weight="700" >O</text>
<text x="83.6" y="54.0" fill="rgb(255,13,59)" font-weight="700" >N</text>
<text x="92.4" y="54.0" fill="rgb(255,40,74)" font-weight="700" >A</text>
<text x="101.2" y="54.0" fill="rgb(255,67,89)" font-weight="700" >T</text>
<text x="110.0" y="54.0" fill="rgb(255,93,105)" font-weight="700" >E</text>
<text x="118.8" y="54.0" fill="rgb(255,120,120)" font-weight="700" >&#160;</text>
<text x="127.6" y="54.0" fill="rgb(255,0,51)"  >────────────────────────────────────────────────────────────────────</text>
<text x="726.0" y="54.0" fill="rgb(255,68,68)" font-weight="700" >&#160;[PLAYER]&#160;</text>
<text x="814.0" y="54.0" fill="rgb(255,0,51)"  >─╮</text>
<text x="22.0" y="72.0" fill="rgb(255,0,51)"  >│</text>
<text x="30.8" y="72.0" fill="rgb(232,232,232)"  >&#160;&#160;</text>
<text x="48.4" y="72.0" fill="rgb(255,0,51)" font-weight="700" >W</text>
<text x="57.2" y="72.0" fill="rgb(255,7,55)" font-weight="700" >e</text>
<text x="66.0" y="72.0" fill="rgb(255,14,60)" font-weight="700" >&#160;</text>
<text x="74.8" y="72.0" fill="rgb(255,21,64)" font-weight="700" >D</text>
<text x="83.6" y="72.0" fill="rgb(255,28,69)" font-weight="700" >o</text>
<text x="92.4" y="72.0" fill="rgb(255,35,73)" font-weight="700" >n</text>
<text x="101.2" y="72.0" fill="rgb(255,42,78)" font-weight="700" >'</text>
<text x="110.0" y="72.0" fill="rgb(255,49,82)" font-weight="700" >t</text>
<text x="118.8" y="72.0" fill="rgb(255,56,87)" font-weight="700" >&#160;</text>
<text x="127.6" y="72.0" fill="rgb(255,63,91)" font-weight="700" >T</text>
<text x="136.4" y="72.0" fill="rgb(255,70,96)" font-weight="700" >a</text>
<text x="145.2" y="72.0" fill="rgb(255,77,100)" font-weight="700" >l</text>
<text x="154.0" y="72.0" fill="rgb(255,84,104)" font-weight="700" >k</text>
<text x="162.8" y="72.0" fill="rgb(255,91,109)" font-weight="700" >&#160;</text>
<text x="171.6" y="72.0" fill="rgb(255,98,113)" font-weight="700" >A</text>
<text x="180.4" y="72.0" fill="rgb(255,105,118)" font-weight="700" >n</text>
<text x="189.2" y="72.0" fill="rgb(255,112,122)" font-weight="700" >y</text>
<text x="198.0" y="72.0" fill="rgb(255,119,127)" font-weight="700" >m</text>
<text x="206.8" y="72.0" fill="rgb(255,126,131)" font-weight="700" >o</text>
<text x="215.6" y="72.0" fill="rgb(255,133,136)" font-weight="700" >r</text>
<text x="224.4" y="72.0" fill="rgb(255,140,140)" font-weight="700" >e</text>
<text x="233.2" y="72.0" fill="rgb(232,232,232)"  >&#160;&#160;&#160;&#160;&#160;&#160;&#160;&#160;&#160;&#160;&#160;&#160;&#160;&#160;&#160;&#160;&#160;&#160;&#160;&#160;&#160;&#160;&#160;&#160;&#160;&#160;&#160;&#160;&#160;&#160;&#160;&#160;&#160;&#160;&#160;&#160;&#160;&#160;&#160;&#160;&#160;&#160;&#160;&#160;&#160;&#160;&#160;&#160;&#160;&#160;&#160;&#160;&#160;&#160;&#160;&#160;&#160;</text>
<text x="734.8" y="72.0" fill="rgb(255,140,140)" font-weight="700" >●</text>
<text x="743.6" y="72.0" fill="rgb(232,232,232)"  >&#160;</text>
<text x="752.4" y="72.0" fill="rgb(255,140,140)" font-weight="700" >PLAYING</text>
<text x="814.0" y="72.0" fill="rgb(232,232,232)"  >&#160;</text>
<text x="822.8" y="72.0" fill="rgb(255,0,51)"  >│</text>
<text x="22.0" y="90.0" fill="rgb(255,0,51)"  >│</text>
<text x="30.8" y="90.0" fill="rgb(232,232,232)"  >&#160;&#160;</text>
<text x="48.4" y="90.0" fill="rgb(255,50,50)"  >YT-MUSIC&#160;</text>
<text x="127.6" y="90.0" fill="rgb(175,130,140)"  >by&#160;Charlie&#160;Puth&#160;•&#160;Nine&#160;Track&#160;Mind</text>
<text x="418.0" y="90.0" fill="rgb(232,232,232)"  >&#160;&#160;&#160;&#160;&#160;&#160;&#160;&#160;&#160;&#160;&#160;&#160;&#160;&#160;&#160;&#160;&#160;&#160;</text>
<text x="576.4" y="90.0" fill="rgb(255,140,140)"  >VOL&#160;82%&#160;</text>
<text x="646.8" y="90.0" fill="rgb(255,68,68)"  >▶&#160;YouTube&#160;Music&#160;Red&#160;</text>
<text x="822.8" y="90.0" fill="rgb(255,0,51)"  >│</text>
<text x="22.0" y="108.0" fill="rgb(255,0,51)"  >╰──────────────────────────────────────────────────────────────────────────────────────────╯</text>
<text x="22.0" y="126.0" fill="rgb(232,232,232)"  >&#160;&#160;&#160;&#160;&#160;&#160;&#160;&#160;&#160;&#160;&#160;&#160;&#160;&#160;&#160;&#160;&#160;&#160;&#160;&#160;&#160;&#160;&#160;&#160;&#160;&#160;&#160;&#160;&#160;&#160;&#160;&#160;&#160;&#160;&#160;&#160;&#160;&#160;&#160;&#160;&#160;&#160;&#160;&#160;&#160;&#160;&#160;&#160;&#160;&#160;&#160;&#160;&#160;&#160;&#160;&#160;&#160;&#160;&#160;&#160;&#160;&#160;&#160;&#160;&#160;&#160;&#160;&#160;&#160;&#160;&#160;&#160;&#160;&#160;&#160;&#160;&#160;&#160;&#160;&#160;&#160;&#160;&#160;&#160;&#160;&#160;&#160;&#160;&#160;&#160;</text>
<text x="22.0" y="144.0" fill="rgb(232,232,232)"  >&#160;&#160;&#160;&#160;&#160;&#160;&#160;&#160;&#160;&#160;&#160;&#160;&#160;&#160;&#160;&#160;&#160;&#160;&#160;&#160;&#160;&#160;&#160;&#160;&#160;&#160;&#160;&#160;&#160;&#160;&#160;&#160;&#160;&#160;&#160;&#160;&#160;&#160;&#160;&#160;&#160;&#160;&#160;&#160;&#160;&#160;&#160;&#160;&#160;&#160;&#160;&#160;&#160;&#160;&#160;&#160;&#160;&#160;&#160;&#160;&#160;&#160;&#160;&#160;&#160;&#160;&#160;&#160;&#160;&#160;&#160;&#160;&#160;&#160;&#160;&#160;&#160;&#160;&#160;&#160;&#160;&#160;&#160;&#160;&#160;&#160;&#160;&#160;&#160;&#160;</text>
<text x="22.0" y="162.0" fill="rgb(232,232,232)"  >&#160;&#160;&#160;</text>
<text x="48.4" y="162.0" fill="rgb(255,0,51)"  >&#160;</text>
<text x="57.2" y="162.0" fill="rgb(255,14,60)"  >╔</text>
<text x="66.0" y="162.0" fill="rgb(255,28,69)"  >═</text>
<text x="74.8" y="162.0" fill="rgb(255,42,78)"  >═</text>
<text x="83.6" y="162.0" fill="rgb(255,56,87)"  >═</text>
<text x="92.4" y="162.0" fill="rgb(255,70,96)"  >═</text>
<text x="101.2" y="162.0" fill="rgb(255,84,104)"  >═</text>
<text x="110.0" y="162.0" fill="rgb(255,98,113)"  >═</text>
<text x="118.8" y="162.0" fill="rgb(255,112,122)"  >═</text>
<text x="127.6" y="162.0" fill="rgb(255,126,131)"  >═</text>
<text x="136.4" y="162.0" fill="rgb(255,140,140)"  >═</text>
<text x="145.2" y="162.0" fill="rgb(255,133,133)"  >═</text>
<text x="154.0" y="162.0" fill="rgb(255,126,126)"  >═</text>
<text x="162.8" y="162.0" fill="rgb(255,118,118)"  >═</text>
<text x="171.6" y="162.0" fill="rgb(255,111,111)"  >═</text>
<text x="180.4" y="162.0" fill="rgb(255,104,104)"  >═</text>
<text x="189.2" y="162.0" fill="rgb(255,97,97)"  >═</text>
<text x="198.0" y="162.0" fill="rgb(255,90,90)"  >═</text>
<text x="206.8" y="162.0" fill="rgb(255,82,82)"  >═</text>
<text x="215.6" y="162.0" fill="rgb(255,75,75)"  >╗</text>
<text x="224.4" y="162.0" fill="rgb(255,68,68)"  >&#160;</text>
<text x="233.2" y="162.0" fill="rgb(232,232,232)"  >&#160;&#160;&#160;&#160;&#160;&#160;</text>
<text x="286.0" y="162.0" fill="rgb(193,137,147)"  >I&#160;just&#160;heard&#160;you&#160;found&#160;the&#160;one&#160;you've&#160;been&#160;looking</text>
<text x="22.0" y="180.0" fill="rgb(232,232,232)"  >&#160;&#160;&#160;</text>
<text x="48.4" y="180.0" fill="rgb(255,0,51)"  >&#160;</text>
<text x="57.2" y="180.0" fill="rgb(255,14,60)"  >║</text>
<text x="66.0" y="180.0" fill="rgb(255,28,69)"  >&#160;</text>
<text x="74.8" y="180.0" fill="rgb(255,42,78)"  >&#160;</text>
<text x="83.6" y="180.0" fill="rgb(255,56,87)"  >▄</text>
<text x="92.4" y="180.0" fill="rgb(255,70,96)"  >▄</text>
<text x="101.2" y="180.0" fill="rgb(255,84,104)"  >▄</text>
<text x="110.0" y="180.0" fill="rgb(255,98,113)"  >▄</text>
<text x="118.8" y="180.0" fill="rgb(255,112,122)"  >&#160;</text>
<text x="127.6" y="180.0" fill="rgb(255,126,131)"  >&#160;</text>
<text x="136.4" y="180.0" fill="rgb(255,140,140)"  >&#160;</text>
<text x="145.2" y="180.0" fill="rgb(255,133,133)"  >&#160;</text>
<text x="154.0" y="180.0" fill="rgb(255,126,126)"  >&#160;</text>
<text x="162.8" y="180.0" fill="rgb(255,118,118)"  >▄</text>
<text x="171.6" y="180.0" fill="rgb(255,111,111)"  >▄</text>
<text x="180.4" y="180.0" fill="rgb(255,104,104)"  >▄</text>
<text x="189.2" y="180.0" fill="rgb(255,97,97)"  >▄</text>
<text x="198.0" y="180.0" fill="rgb(255,90,90)"  >&#160;</text>
<text x="206.8" y="180.0" fill="rgb(255,82,82)"  >&#160;</text>
<text x="215.6" y="180.0" fill="rgb(255,75,75)"  >║</text>
<text x="224.4" y="180.0" fill="rgb(255,68,68)"  >&#160;</text>
<text x="233.2" y="180.0" fill="rgb(232,232,232)"  >&#160;&#160;&#160;&#160;&#160;&#160;</text>
<text x="286.0" y="180.0" fill="rgb(193,137,147)"  >You've&#160;been&#160;looking&#160;for</text>
<text x="22.0" y="198.0" fill="rgb(232,232,232)"  >&#160;&#160;&#160;</text>
<text x="48.4" y="198.0" fill="rgb(255,0,51)"  >&#160;</text>
<text x="57.2" y="198.0" fill="rgb(255,14,60)"  >║</text>
<text x="66.0" y="198.0" fill="rgb(255,28,69)"  >&#160;</text>
<text x="74.8" y="198.0" fill="rgb(255,42,78)"  >▐</text>
<text x="83.6" y="198.0" fill="rgb(255,56,87)"  >█</text>
<text x="92.4" y="198.0" fill="rgb(255,70,96)"  >█</text>
<text x="101.2" y="198.0" fill="rgb(255,84,104)"  >█</text>
<text x="110.0" y="198.0" fill="rgb(255,98,113)"  >█</text>
<text x="118.8" y="198.0" fill="rgb(255,112,122)"  >▌</text>
<text x="127.6" y="198.0" fill="rgb(255,126,131)"  >&#160;</text>
<text x="136.4" y="198.0" fill="rgb(255,140,140)"  >♫</text>
<text x="145.2" y="198.0" fill="rgb(255,133,133)"  >&#160;</text>
<text x="154.0" y="198.0" fill="rgb(255,126,126)"  >▐</text>
<text x="162.8" y="198.0" fill="rgb(255,118,118)"  >█</text>
<text x="171.6" y="198.0" fill="rgb(255,111,111)"  >█</text>
<text x="180.4" y="198.0" fill="rgb(255,104,104)"  >█</text>
<text x="189.2" y="198.0" fill="rgb(255,97,97)"  >█</text>
<text x="198.0" y="198.0" fill="rgb(255,90,90)"  >▌</text>
<text x="206.8" y="198.0" fill="rgb(255,82,82)"  >&#160;</text>
<text x="215.6" y="198.0" fill="rgb(255,75,75)"  >║</text>
<text x="224.4" y="198.0" fill="rgb(255,68,68)"  >&#160;</text>
<text x="233.2" y="198.0" fill="rgb(232,232,232)"  >&#160;&#160;&#160;&#160;&#160;&#160;</text>
<text x="286.0" y="198.0" fill="rgb(193,137,147)"  >I&#160;wish&#160;I&#160;would&#160;have&#160;known&#160;that&#160;wasn't&#160;me</text>
<text x="22.0" y="216.0" fill="rgb(232,232,232)"  >&#160;&#160;&#160;</text>
<text x="48.4" y="216.0" fill="rgb(255,0,51)"  >&#160;</text>
<text x="57.2" y="216.0" fill="rgb(255,14,60)"  >║</text>
<text x="66.0" y="216.0" fill="rgb(255,28,69)"  >&#160;</text>
<text x="74.8" y="216.0" fill="rgb(255,42,78)"  >&#160;</text>
<text x="83.6" y="216.0" fill="rgb(255,56,87)"  >▀</text>
<text x="92.4" y="216.0" fill="rgb(255,70,96)"  >▀</text>
<text x="101.2" y="216.0" fill="rgb(255,84,104)"  >▀</text>
<text x="110.0" y="216.0" fill="rgb(255,98,113)"  >▀</text>
<text x="118.8" y="216.0" fill="rgb(255,112,122)"  >&#160;</text>
<text x="127.6" y="216.0" fill="rgb(255,126,131)"  >&#160;</text>
<text x="136.4" y="216.0" fill="rgb(255,140,140)"  >&#160;</text>
<text x="145.2" y="216.0" fill="rgb(255,133,133)"  >&#160;</text>
<text x="154.0" y="216.0" fill="rgb(255,126,126)"  >&#160;</text>
<text x="162.8" y="216.0" fill="rgb(255,118,118)"  >▀</text>
<text x="171.6" y="216.0" fill="rgb(255,111,111)"  >▀</text>
<text x="180.4" y="216.0" fill="rgb(255,104,104)"  >▀</text>
<text x="189.2" y="216.0" fill="rgb(255,97,97)"  >▀</text>
<text x="198.0" y="216.0" fill="rgb(255,90,90)"  >&#160;</text>
<text x="206.8" y="216.0" fill="rgb(255,82,82)"  >&#160;</text>
<text x="215.6" y="216.0" fill="rgb(255,75,75)"  >║</text>
<text x="224.4" y="216.0" fill="rgb(255,68,68)"  >&#160;</text>
<text x="233.2" y="216.0" fill="rgb(232,232,232)"  >&#160;&#160;&#160;&#160;&#160;&#160;</text>
<text x="286.0" y="216.0" fill="rgb(200,140,150)"  >Cause&#160;even&#160;after&#160;all&#160;this&#160;time&#160;I&#160;still&#160;wonder</text>
<text x="22.0" y="234.0" fill="rgb(232,232,232)"  >&#160;&#160;&#160;</text>
<text x="48.4" y="234.0" fill="rgb(255,0,51)"  >&#160;</text>
<text x="57.2" y="234.0" fill="rgb(255,14,60)"  >╚</text>
<text x="66.0" y="234.0" fill="rgb(255,28,69)"  >═</text>
<text x="74.8" y="234.0" fill="rgb(255,42,78)"  >═</text>
<text x="83.6" y="234.0" fill="rgb(255,56,87)"  >═</text>
<text x="92.4" y="234.0" fill="rgb(255,70,96)"  >═</text>
<text x="101.2" y="234.0" fill="rgb(255,84,104)"  >═</text>
<text x="110.0" y="234.0" fill="rgb(255,98,113)"  >═</text>
<text x="118.8" y="234.0" fill="rgb(255,112,122)"  >═</text>
<text x="127.6" y="234.0" fill="rgb(255,126,131)"  >═</text>
<text x="136.4" y="234.0" fill="rgb(255,140,140)"  >═</text>
<text x="145.2" y="234.0" fill="rgb(255,133,133)"  >═</text>
<text x="154.0" y="234.0" fill="rgb(255,126,126)"  >═</text>
<text x="162.8" y="234.0" fill="rgb(255,118,118)"  >═</text>
<text x="171.6" y="234.0" fill="rgb(255,111,111)"  >═</text>
<text x="180.4" y="234.0" fill="rgb(255,104,104)"  >═</text>
<text x="189.2" y="234.0" fill="rgb(255,97,97)"  >═</text>
<text x="198.0" y="234.0" fill="rgb(255,90,90)"  >═</text>
<text x="206.8" y="234.0" fill="rgb(255,82,82)"  >═</text>
<text x="215.6" y="234.0" fill="rgb(255,75,75)"  >╝</text>
<text x="224.4" y="234.0" fill="rgb(255,68,68)"  >&#160;</text>
<text x="233.2" y="234.0" fill="rgb(232,232,232)"  >&#160;&#160;&#160;&#160;</text>
<text x="268.4" y="234.0" fill="rgb(255,140,140)" font-weight="700" >▶&#160;</text>
<text x="286.0" y="234.0" fill="rgb(255,255,255)" font-weight="700" >We&#160;don't&#160;ta</text>
<text x="382.8" y="234.0" fill="rgb(255,50,75)" font-weight="700" >lk&#160;anymore</text>
<text x="22.0" y="252.0" fill="rgb(255,0,51)"  >&#160;</text>
<text x="30.8" y="252.0" fill="rgb(255,11,58)"  >&#160;</text>
<text x="39.6" y="252.0" fill="rgb(255,22,65)"  >&#160;</text>
<text x="48.4" y="252.0" fill="rgb(255,32,72)"  >W</text>
<text x="57.2" y="252.0" fill="rgb(255,43,78)"  >E</text>
<text x="66.0" y="252.0" fill="rgb(255,54,85)"  >&#160;</text>
<text x="74.8" y="252.0" fill="rgb(255,65,92)"  >D</text>
<text x="83.6" y="252.0" fill="rgb(255,75,99)"  >O</text>
<text x="92.4" y="252.0" fill="rgb(255,86,106)"  >N</text>
<text x="101.2" y="252.0" fill="rgb(255,97,113)"  >'</text>
<text x="110.0" y="252.0" fill="rgb(255,108,119)"  >T</text>
<text x="118.8" y="252.0" fill="rgb(255,118,126)"  >&#160;</text>
<text x="127.6" y="252.0" fill="rgb(255,129,133)"  >T</text>
<text x="136.4" y="252.0" fill="rgb(255,140,140)"  >A</text>
<text x="145.2" y="252.0" fill="rgb(255,134,134)"  >L</text>
<text x="154.0" y="252.0" fill="rgb(255,129,129)"  >K</text>
<text x="162.8" y="252.0" fill="rgb(255,123,123)"  >&#160;</text>
<text x="171.6" y="252.0" fill="rgb(255,118,118)"  >A</text>
<text x="180.4" y="252.0" fill="rgb(255,112,112)"  >N</text>
<text x="189.2" y="252.0" fill="rgb(255,107,107)"  >Y</text>
<text x="198.0" y="252.0" fill="rgb(255,101,101)"  >M</text>
<text x="206.8" y="252.0" fill="rgb(255,96,96)"  >O</text>
<text x="215.6" y="252.0" fill="rgb(255,90,90)"  >R</text>
<text x="224.4" y="252.0" fill="rgb(255,85,85)"  >E</text>
<text x="233.2" y="252.0" fill="rgb(255,79,79)"  >&#160;</text>
<text x="242.0" y="252.0" fill="rgb(255,74,74)"  >&#160;</text>
<text x="250.8" y="252.0" fill="rgb(255,68,68)"  >&#160;</text>
<text x="259.6" y="252.0" fill="rgb(232,232,232)"  >&#160;&#160;&#160;</text>
<text x="286.0" y="252.0" fill="rgb(245,245,245)"  >We&#160;don't&#160;talk&#160;anymore</text>
<text x="22.0" y="270.0" fill="rgb(232,232,232)"  >&#160;&#160;&#160;&#160;&#160;</text>
<text x="66.0" y="270.0" fill="rgb(255,0,51)"  >&#160;</text>
<text x="74.8" y="270.0" fill="rgb(255,16,61)"  >&#160;</text>
<text x="83.6" y="270.0" fill="rgb(255,33,72)"  >&#160;</text>
<text x="92.4" y="270.0" fill="rgb(255,49,82)"  >C</text>
<text x="101.2" y="270.0" fill="rgb(255,66,93)"  >h</text>
<text x="110.0" y="270.0" fill="rgb(255,82,103)"  >a</text>
<text x="118.8" y="270.0" fill="rgb(255,99,114)"  >r</text>
<text x="127.6" y="270.0" fill="rgb(255,115,124)"  >l</text>
<text x="136.4" y="270.0" fill="rgb(255,132,135)"  >i</text>
<text x="145.2" y="270.0" fill="rgb(255,136,136)"  >e</text>
<text x="154.0" y="270.0" fill="rgb(255,127,127)"  >&#160;</text>
<text x="162.8" y="270.0" fill="rgb(255,119,119)"  >P</text>
<text x="171.6" y="270.0" fill="rgb(255,110,110)"  >u</text>
<text x="180.4" y="270.0" fill="rgb(255,102,102)"  >t</text>
<text x="189.2" y="270.0" fill="rgb(255,93,93)"  >h</text>
<text x="198.0" y="270.0" fill="rgb(255,85,85)"  >&#160;</text>
<text x="206.8" y="270.0" fill="rgb(255,76,76)"  >&#160;</text>
<text x="215.6" y="270.0" fill="rgb(255,68,68)"  >&#160;</text>
<text x="224.4" y="270.0" fill="rgb(232,232,232)"  >&#160;&#160;&#160;&#160;&#160;&#160;&#160;</text>
<text x="286.0" y="270.0" fill="rgb(238,229,231)"  >We&#160;don't&#160;talk&#160;anymore</text>
<text x="22.0" y="288.0" fill="rgb(232,232,232)"  >&#160;&#160;&#160;&#160;&#160;&#160;&#160;&#160;&#160;&#160;&#160;&#160;&#160;&#160;&#160;&#160;&#160;&#160;&#160;&#160;&#160;&#160;&#160;&#160;&#160;&#160;&#160;&#160;&#160;&#160;</text>
<text x="286.0" y="288.0" fill="rgb(232,214,217)"  >Like&#160;we&#160;used&#160;to&#160;do</text>
<text x="22.0" y="306.0" fill="rgb(232,232,232)"  >&#160;&#160;&#160;&#160;&#160;&#160;&#160;&#160;&#160;&#160;&#160;&#160;&#160;&#160;&#160;&#160;&#160;&#160;&#160;&#160;&#160;&#160;&#160;&#160;&#160;&#160;&#160;&#160;&#160;&#160;</text>
<text x="286.0" y="306.0" fill="rgb(225,198,202)"  >We&#160;don't&#160;love&#160;anymore</text>
<text x="22.0" y="324.0" fill="rgb(232,232,232)"  >&#160;&#160;&#160;&#160;&#160;&#160;&#160;&#160;&#160;&#160;&#160;&#160;&#160;&#160;&#160;&#160;&#160;&#160;&#160;&#160;&#160;&#160;&#160;&#160;&#160;&#160;&#160;&#160;&#160;&#160;</text>
<text x="286.0" y="324.0" fill="rgb(225,198,202)"  >What&#160;was&#160;all&#160;of&#160;it&#160;for?</text>
<text x="22.0" y="342.0" fill="rgb(232,232,232)"  >&#160;&#160;&#160;&#160;&#160;&#160;&#160;&#160;&#160;&#160;&#160;&#160;&#160;&#160;&#160;&#160;</text>
<text x="162.8" y="342.0" fill="rgb(255,255,255)"  >▔</text>
<text x="171.6" y="342.0" fill="rgb(232,232,232)"  >&#160;</text>
<text x="180.4" y="342.0" fill="rgb(255,255,255)"  >▔</text>
<text x="189.2" y="342.0" fill="rgb(232,232,232)"  >&#160;</text>
<text x="198.0" y="342.0" fill="rgb(255,255,255)"  >▔</text>
<text x="206.8" y="342.0" fill="rgb(232,232,232)"  >&#160;</text>
<text x="215.6" y="342.0" fill="rgb(255,255,255)"  >▔</text>
<text x="224.4" y="342.0" fill="rgb(232,232,232)"  >&#160;</text>
<text x="233.2" y="342.0" fill="rgb(255,255,255)"  >▔</text>
<text x="242.0" y="342.0" fill="rgb(232,232,232)"  >&#160;&#160;&#160;&#160;&#160;&#160;&#160;&#160;&#160;&#160;&#160;&#160;&#160;&#160;&#160;&#160;&#160;&#160;&#160;&#160;&#160;&#160;&#160;&#160;&#160;&#160;&#160;&#160;&#160;&#160;&#160;&#160;&#160;&#160;&#160;&#160;&#160;&#160;&#160;&#160;&#160;&#160;&#160;&#160;&#160;&#160;&#160;&#160;&#160;&#160;&#160;&#160;&#160;&#160;&#160;&#160;&#160;&#160;&#160;&#160;&#160;&#160;&#160;&#160;&#160;&#160;&#160;</text>
<text x="22.0" y="360.0" fill="rgb(232,232,232)"  >&#160;&#160;&#160;&#160;&#160;&#160;&#160;&#160;&#160;&#160;</text>
<text x="110.0" y="360.0" fill="rgb(255,255,255)"  >▔</text>
<text x="118.8" y="360.0" fill="rgb(232,232,232)"  >&#160;</text>
<text x="127.6" y="360.0" fill="rgb(255,255,255)"  >▔</text>
<text x="136.4" y="360.0" fill="rgb(232,232,232)"  >&#160;</text>
<text x="145.2" y="360.0" fill="rgb(255,255,255)"  >▔</text>
<text x="154.0" y="360.0" fill="rgb(232,232,232)"  >&#160;</text>
<text x="162.8" y="360.0" fill="rgb(255,80,80)"  >█</text>
<text x="171.6" y="360.0" fill="rgb(232,232,232)"  >&#160;</text>
<text x="180.4" y="360.0" fill="rgb(255,160,160)"  >█</text>
<text x="189.2" y="360.0" fill="rgb(232,232,232)"  >&#160;</text>
<text x="198.0" y="360.0" fill="rgb(160,0,30)"  >█</text>
<text x="206.8" y="360.0" fill="rgb(232,232,232)"  >&#160;</text>
<text x="215.6" y="360.0" fill="rgb(210,10,45)"  >█</text>
<text x="224.4" y="360.0" fill="rgb(232,232,232)"  >&#160;</text>
<text x="233.2" y="360.0" fill="rgb(255,0,51)"  >█</text>
<text x="242.0" y="360.0" fill="rgb(232,232,232)"  >&#160;</text>
<text x="250.8" y="360.0" fill="rgb(255,255,255)"  >▔</text>
<text x="259.6" y="360.0" fill="rgb(232,232,232)"  >&#160;</text>
<text x="268.4" y="360.0" fill="rgb(255,255,255)"  >▔</text>
<text x="277.2" y="360.0" fill="rgb(232,232,232)"  >&#160;&#160;&#160;&#160;&#160;&#160;&#160;&#160;&#160;&#160;&#160;&#160;&#160;&#160;&#160;&#160;&#160;&#160;&#160;&#160;&#160;&#160;&#160;&#160;&#160;&#160;&#160;&#160;&#160;&#160;&#160;&#160;&#160;&#160;&#160;&#160;&#160;&#160;&#160;</text>
<text x="620.4" y="360.0" fill="rgb(255,255,255)"  >▔</text>
<text x="629.2" y="360.0" fill="rgb(232,232,232)"  >&#160;</text>
<text x="638.0" y="360.0" fill="rgb(255,255,255)"  >▔</text>
<text x="646.8" y="360.0" fill="rgb(232,232,232)"  >&#160;</text>
<text x="655.6" y="360.0" fill="rgb(255,255,255)"  >▔</text>
<text x="664.4" y="360.0" fill="rgb(232,232,232)"  >&#160;</text>
<text x="673.2" y="360.0" fill="rgb(255,255,255)"  >▔</text>
<text x="682.0" y="360.0" fill="rgb(232,232,232)"  >&#160;</text>
<text x="690.8" y="360.0" fill="rgb(255,255,255)"  >▔</text>
<text x="699.6" y="360.0" fill="rgb(232,232,232)"  >&#160;</text>
<text x="708.4" y="360.0" fill="rgb(255,255,255)"  >▔</text>
<text x="717.2" y="360.0" fill="rgb(232,232,232)"  >&#160;&#160;&#160;&#160;&#160;&#160;&#160;&#160;&#160;&#160;&#160;&#160;&#160;</text>
<text x="22.0" y="378.0" fill="rgb(232,232,232)"  >&#160;&#160;&#160;&#160;&#160;&#160;</text>
<text x="74.8" y="378.0" fill="rgb(255,255,255)"  >▔</text>
<text x="83.6" y="378.0" fill="rgb(232,232,232)"  >&#160;</text>
<text x="92.4" y="378.0" fill="rgb(255,255,255)"  >▔</text>
<text x="101.2" y="378.0" fill="rgb(232,232,232)"  >&#160;</text>
<text x="110.0" y="378.0" fill="rgb(160,0,30)"  >█</text>
<text x="118.8" y="378.0" fill="rgb(232,232,232)"  >&#160;</text>
<text x="127.6" y="378.0" fill="rgb(210,10,45)"  >█</text>
<text x="136.4" y="378.0" fill="rgb(232,232,232)"  >&#160;</text>
<text x="145.2" y="378.0" fill="rgb(255,0,51)"  >█</text>
<text x="154.0" y="378.0" fill="rgb(232,232,232)"  >&#160;</text>
<text x="162.8" y="378.0" fill="rgb(255,80,80)"  >█</text>
<text x="171.6" y="378.0" fill="rgb(232,232,232)"  >&#160;</text>
<text x="180.4" y="378.0" fill="rgb(255,160,160)"  >█</text>
<text x="189.2" y="378.0" fill="rgb(232,232,232)"  >&#160;</text>
<text x="198.0" y="378.0" fill="rgb(160,0,30)"  >█</text>
<text x="206.8" y="378.0" fill="rgb(232,232,232)"  >&#160;</text>
<text x="215.6" y="378.0" fill="rgb(210,10,45)"  >█</text>
<text x="224.4" y="378.0" fill="rgb(232,232,232)"  >&#160;</text>
<text x="233.2" y="378.0" fill="rgb(255,0,51)"  >█</text>
<text x="242.0" y="378.0" fill="rgb(232,232,232)"  >&#160;</text>
<text x="250.8" y="378.0" fill="rgb(255,80,80)"  >█</text>
<text x="259.6" y="378.0" fill="rgb(232,232,232)"  >&#160;</text>
<text x="268.4" y="378.0" fill="rgb(255,160,160)"  >█</text>
<text x="277.2" y="378.0" fill="rgb(232,232,232)"  >&#160;</text>
<text x="286.0" y="378.0" fill="rgb(255,255,255)"  >▔</text>
<text x="294.8" y="378.0" fill="rgb(232,232,232)"  >&#160;</text>
<text x="303.6" y="378.0" fill="rgb(255,255,255)"  >▔</text>
<text x="312.4" y="378.0" fill="rgb(232,232,232)"  >&#160;</text>
<text x="321.2" y="378.0" fill="rgb(255,255,255)"  >▔</text>
<text x="330.0" y="378.0" fill="rgb(232,232,232)"  >&#160;&#160;&#160;&#160;&#160;&#160;&#160;&#160;&#160;&#160;&#160;&#160;&#160;&#160;&#160;&#160;&#160;&#160;&#160;&#160;&#160;&#160;&#160;&#160;&#160;&#160;&#160;&#160;&#160;</text>
<text x="585.2" y="378.0" fill="rgb(255,255,255)"  >▔</text>
<text x="594.0" y="378.0" fill="rgb(232,232,232)"  >&#160;</text>
<text x="602.8" y="378.0" fill="rgb(255,255,255)"  >▔</text>
<text x="611.6" y="378.0" fill="rgb(232,232,232)"  >&#160;</text>
<text x="620.4" y="378.0" fill="rgb(255,160,160)"  >█</text>
<text x="629.2" y="378.0" fill="rgb(232,232,232)"  >&#160;</text>
<text x="638.0" y="378.0" fill="rgb(160,0,30)"  >█</text>
<text x="646.8" y="378.0" fill="rgb(232,232,232)"  >&#160;</text>
<text x="655.6" y="378.0" fill="rgb(210,10,45)"  >█</text>
<text x="664.4" y="378.0" fill="rgb(232,232,232)"  >&#160;</text>
<text x="673.2" y="378.0" fill="rgb(255,0,51)"  >█</text>
<text x="682.0" y="378.0" fill="rgb(232,232,232)"  >&#160;</text>
<text x="690.8" y="378.0" fill="rgb(255,80,80)"  >█</text>
<text x="699.6" y="378.0" fill="rgb(232,232,232)"  >&#160;</text>
<text x="708.4" y="378.0" fill="rgb(255,160,160)"  >█</text>
<text x="717.2" y="378.0" fill="rgb(232,232,232)"  >&#160;</text>
<text x="726.0" y="378.0" fill="rgb(255,255,255)"  >▔</text>
<text x="734.8" y="378.0" fill="rgb(232,232,232)"  >&#160;</text>
<text x="743.6" y="378.0" fill="rgb(255,255,255)"  >▔</text>
<text x="752.4" y="378.0" fill="rgb(232,232,232)"  >&#160;&#160;&#160;&#160;&#160;&#160;&#160;&#160;&#160;</text>
<text x="22.0" y="396.0" fill="rgb(232,232,232)"  >&#160;&#160;</text>
<text x="39.6" y="396.0" fill="rgb(255,255,255)"  >▔</text>
<text x="48.4" y="396.0" fill="rgb(232,232,232)"  >&#160;</text>
<text x="57.2" y="396.0" fill="rgb(255,255,255)"  >▔</text>
<text x="66.0" y="396.0" fill="rgb(232,232,232)"  >&#160;</text>
<text x="74.8" y="396.0" fill="rgb(255,80,80)"  >█</text>
<text x="83.6" y="396.0" fill="rgb(232,232,232)"  >&#160;</text>
<text x="92.4" y="396.0" fill="rgb(255,160,160)"  >█</text>
<text x="101.2" y="396.0" fill="rgb(232,232,232)"  >&#160;</text>
<text x="110.0" y="396.0" fill="rgb(160,0,30)"  >█</text>
<text x="118.8" y="396.0" fill="rgb(232,232,232)"  >&#160;</text>
<text x="127.6" y="396.0" fill="rgb(210,10,45)"  >█</text>
<text x="136.4" y="396.0" fill="rgb(232,232,232)"  >&#160;</text>
<text x="145.2" y="396.0" fill="rgb(255,0,51)"  >█</text>
<text x="154.0" y="396.0" fill="rgb(232,232,232)"  >&#160;</text>
<text x="162.8" y="396.0" fill="rgb(255,80,80)"  >█</text>
<text x="171.6" y="396.0" fill="rgb(232,232,232)"  >&#160;</text>
<text x="180.4" y="396.0" fill="rgb(255,160,160)"  >█</text>
<text x="189.2" y="396.0" fill="rgb(232,232,232)"  >&#160;</text>
<text x="198.0" y="396.0" fill="rgb(160,0,30)"  >█</text>
<text x="206.8" y="396.0" fill="rgb(232,232,232)"  >&#160;</text>
<text x="215.6" y="396.0" fill="rgb(210,10,45)"  >█</text>
<text x="224.4" y="396.0" fill="rgb(232,232,232)"  >&#160;</text>
<text x="233.2" y="396.0" fill="rgb(255,0,51)"  >█</text>
<text x="242.0" y="396.0" fill="rgb(232,232,232)"  >&#160;</text>
<text x="250.8" y="396.0" fill="rgb(255,80,80)"  >█</text>
<text x="259.6" y="396.0" fill="rgb(232,232,232)"  >&#160;</text>
<text x="268.4" y="396.0" fill="rgb(255,160,160)"  >█</text>
<text x="277.2" y="396.0" fill="rgb(232,232,232)"  >&#160;</text>
<text x="286.0" y="396.0" fill="rgb(160,0,30)"  >█</text>
<text x="294.8" y="396.0" fill="rgb(232,232,232)"  >&#160;</text>
<text x="303.6" y="396.0" fill="rgb(210,10,45)"  >█</text>
<text x="312.4" y="396.0" fill="rgb(232,232,232)"  >&#160;</text>
<text x="321.2" y="396.0" fill="rgb(255,0,51)"  >█</text>
<text x="330.0" y="396.0" fill="rgb(232,232,232)"  >&#160;</text>
<text x="338.8" y="396.0" fill="rgb(255,255,255)"  >▔</text>
<text x="347.6" y="396.0" fill="rgb(232,232,232)"  >&#160;</text>
<text x="356.4" y="396.0" fill="rgb(255,255,255)"  >▔</text>
<text x="365.2" y="396.0" fill="rgb(232,232,232)"  >&#160;</text>
<text x="374.0" y="396.0" fill="rgb(255,255,255)"  >▔</text>
<text x="382.8" y="396.0" fill="rgb(232,232,232)"  >&#160;</text>
<text x="391.6" y="396.0" fill="rgb(255,255,255)"  >▔</text>
<text x="400.4" y="396.0" fill="rgb(232,232,232)"  >&#160;</text>
<text x="409.2" y="396.0" fill="rgb(255,255,255)"  >▔</text>
<text x="418.0" y="396.0" fill="rgb(232,232,232)"  >&#160;&#160;&#160;&#160;&#160;&#160;&#160;&#160;&#160;&#160;&#160;&#160;&#160;</text>
<text x="532.4" y="396.0" fill="rgb(255,255,255)"  >▔</text>
<text x="541.2" y="396.0" fill="rgb(232,232,232)"  >&#160;</text>
<text x="550.0" y="396.0" fill="rgb(255,255,255)"  >▔</text>
<text x="558.8" y="396.0" fill="rgb(232,232,232)"  >&#160;</text>
<text x="567.6" y="396.0" fill="rgb(255,255,255)"  >▔</text>
<text x="576.4" y="396.0" fill="rgb(232,232,232)"  >&#160;</text>
<text x="585.2" y="396.0" fill="rgb(255,0,51)"  >█</text>
<text x="594.0" y="396.0" fill="rgb(232,232,232)"  >&#160;</text>
<text x="602.8" y="396.0" fill="rgb(255,80,80)"  >█</text>
<text x="611.6" y="396.0" fill="rgb(232,232,232)"  >&#160;</text>
<text x="620.4" y="396.0" fill="rgb(255,160,160)"  >█</text>
<text x="629.2" y="396.0" fill="rgb(232,232,232)"  >&#160;</text>
<text x="638.0" y="396.0" fill="rgb(160,0,30)"  >█</text>
<text x="646.8" y="396.0" fill="rgb(232,232,232)"  >&#160;</text>
<text x="655.6" y="396.0" fill="rgb(210,10,45)"  >█</text>
<text x="664.4" y="396.0" fill="rgb(232,232,232)"  >&#160;</text>
<text x="673.2" y="396.0" fill="rgb(255,0,51)"  >█</text>
<text x="682.0" y="396.0" fill="rgb(232,232,232)"  >&#160;</text>
<text x="690.8" y="396.0" fill="rgb(255,80,80)"  >█</text>
<text x="699.6" y="396.0" fill="rgb(232,232,232)"  >&#160;</text>
<text x="708.4" y="396.0" fill="rgb(255,160,160)"  >█</text>
<text x="717.2" y="396.0" fill="rgb(232,232,232)"  >&#160;</text>
<text x="726.0" y="396.0" fill="rgb(160,0,30)"  >█</text>
<text x="734.8" y="396.0" fill="rgb(232,232,232)"  >&#160;</text>
<text x="743.6" y="396.0" fill="rgb(210,10,45)"  >█</text>
<text x="752.4" y="396.0" fill="rgb(232,232,232)"  >&#160;</text>
<text x="761.2" y="396.0" fill="rgb(255,255,255)"  >▔</text>
<text x="770.0" y="396.0" fill="rgb(232,232,232)"  >&#160;</text>
<text x="778.8" y="396.0" fill="rgb(255,255,255)"  >▔</text>
<text x="787.6" y="396.0" fill="rgb(232,232,232)"  >&#160;&#160;&#160;&#160;&#160;</text>
<text x="22.0" y="414.0" fill="rgb(160,0,30)"  >▇</text>
<text x="30.8" y="414.0" fill="rgb(232,232,232)"  >&#160;</text>
<text x="39.6" y="414.0" fill="rgb(210,10,45)"  >█</text>
<text x="48.4" y="414.0" fill="rgb(232,232,232)"  >&#160;</text>
<text x="57.2" y="414.0" fill="rgb(255,0,51)"  >█</text>
<text x="66.0" y="414.0" fill="rgb(232,232,232)"  >&#160;</text>
<text x="74.8" y="414.0" fill="rgb(255,80,80)"  >█</text>
<text x="83.6" y="414.0" fill="rgb(232,232,232)"  >&#160;</text>
<text x="92.4" y="414.0" fill="rgb(255,160,160)"  >█</text>
<text x="101.2" y="414.0" fill="rgb(232,232,232)"  >&#160;</text>
<text x="110.0" y="414.0" fill="rgb(160,0,30)"  >█</text>
<text x="118.8" y="414.0" fill="rgb(232,232,232)"  >&#160;</text>
<text x="127.6" y="414.0" fill="rgb(210,10,45)"  >█</text>
<text x="136.4" y="414.0" fill="rgb(232,232,232)"  >&#160;</text>
<text x="145.2" y="414.0" fill="rgb(255,0,51)"  >█</text>
<text x="154.0" y="414.0" fill="rgb(232,232,232)"  >&#160;</text>
<text x="162.8" y="414.0" fill="rgb(255,80,80)"  >█</text>
<text x="171.6" y="414.0" fill="rgb(232,232,232)"  >&#160;</text>
<text x="180.4" y="414.0" fill="rgb(255,160,160)"  >█</text>
<text x="189.2" y="414.0" fill="rgb(232,232,232)"  >&#160;</text>
<text x="198.0" y="414.0" fill="rgb(160,0,30)"  >█</text>
<text x="206.8" y="414.0" fill="rgb(232,232,232)"  >&#160;</text>
<text x="215.6" y="414.0" fill="rgb(210,10,45)"  >█</text>
<text x="224.4" y="414.0" fill="rgb(232,232,232)"  >&#160;</text>
<text x="233.2" y="414.0" fill="rgb(255,0,51)"  >█</text>
<text x="242.0" y="414.0" fill="rgb(232,232,232)"  >&#160;</text>
<text x="250.8" y="414.0" fill="rgb(255,80,80)"  >█</text>
<text x="259.6" y="414.0" fill="rgb(232,232,232)"  >&#160;</text>
<text x="268.4" y="414.0" fill="rgb(255,160,160)"  >█</text>
<text x="277.2" y="414.0" fill="rgb(232,232,232)"  >&#160;</text>
<text x="286.0" y="414.0" fill="rgb(160,0,30)"  >█</text>
<text x="294.8" y="414.0" fill="rgb(232,232,232)"  >&#160;</text>
<text x="303.6" y="414.0" fill="rgb(210,10,45)"  >█</text>
<text x="312.4" y="414.0" fill="rgb(232,232,232)"  >&#160;</text>
<text x="321.2" y="414.0" fill="rgb(255,0,51)"  >█</text>
<text x="330.0" y="414.0" fill="rgb(232,232,232)"  >&#160;</text>
<text x="338.8" y="414.0" fill="rgb(255,80,80)"  >█</text>
<text x="347.6" y="414.0" fill="rgb(232,232,232)"  >&#160;</text>
<text x="356.4" y="414.0" fill="rgb(255,160,160)"  >█</text>
<text x="365.2" y="414.0" fill="rgb(232,232,232)"  >&#160;</text>
<text x="374.0" y="414.0" fill="rgb(160,0,30)"  >█</text>
<text x="382.8" y="414.0" fill="rgb(232,232,232)"  >&#160;</text>
<text x="391.6" y="414.0" fill="rgb(210,10,45)"  >█</text>
<text x="400.4" y="414.0" fill="rgb(232,232,232)"  >&#160;</text>
<text x="409.2" y="414.0" fill="rgb(255,0,51)"  >█</text>
<text x="418.0" y="414.0" fill="rgb(232,232,232)"  >&#160;</text>
<text x="426.8" y="414.0" fill="rgb(255,80,80)"  >▇</text>
<text x="435.6" y="414.0" fill="rgb(232,232,232)"  >&#160;</text>
<text x="444.4" y="414.0" fill="rgb(255,160,160)"  >▇</text>
<text x="453.2" y="414.0" fill="rgb(232,232,232)"  >&#160;</text>
<text x="462.0" y="414.0" fill="rgb(160,0,30)"  >▆</text>
<text x="470.8" y="414.0" fill="rgb(232,232,232)"  >&#160;</text>
<text x="479.6" y="414.0" fill="rgb(210,10,45)"  >▅</text>
<text x="488.4" y="414.0" fill="rgb(232,232,232)"  >&#160;</text>
<text x="497.2" y="414.0" fill="rgb(255,0,51)"  >▄</text>
<text x="506.0" y="414.0" fill="rgb(232,232,232)"  >&#160;</text>
<text x="514.8" y="414.0" fill="rgb(255,80,80)"  >▆</text>
<text x="523.6" y="414.0" fill="rgb(232,232,232)"  >&#160;</text>
<text x="532.4" y="414.0" fill="rgb(255,160,160)"  >█</text>
<text x="541.2" y="414.0" fill="rgb(232,232,232)"  >&#160;</text>
<text x="550.0" y="414.0" fill="rgb(160,0,30)"  >█</text>
<text x="558.8" y="414.0" fill="rgb(232,232,232)"  >&#160;</text>
<text x="567.6" y="414.0" fill="rgb(210,10,45)"  >█</text>
<text x="576.4" y="414.0" fill="rgb(232,232,232)"  >&#160;</text>
<text x="585.2" y="414.0" fill="rgb(255,0,51)"  >█</text>
<text x="594.0" y="414.0" fill="rgb(232,232,232)"  >&#160;</text>
<text x="602.8" y="414.0" fill="rgb(255,80,80)"  >█</text>
<text x="611.6" y="414.0" fill="rgb(232,232,232)"  >&#160;</text>
<text x="620.4" y="414.0" fill="rgb(255,160,160)"  >█</text>
<text x="629.2" y="414.0" fill="rgb(232,232,232)"  >&#160;</text>
<text x="638.0" y="414.0" fill="rgb(160,0,30)"  >█</text>
<text x="646.8" y="414.0" fill="rgb(232,232,232)"  >&#160;</text>
<text x="655.6" y="414.0" fill="rgb(210,10,45)"  >█</text>
<text x="664.4" y="414.0" fill="rgb(232,232,232)"  >&#160;</text>
<text x="673.2" y="414.0" fill="rgb(255,0,51)"  >█</text>
<text x="682.0" y="414.0" fill="rgb(232,232,232)"  >&#160;</text>
<text x="690.8" y="414.0" fill="rgb(255,80,80)"  >█</text>
<text x="699.6" y="414.0" fill="rgb(232,232,232)"  >&#160;</text>
<text x="708.4" y="414.0" fill="rgb(255,160,160)"  >█</text>
<text x="717.2" y="414.0" fill="rgb(232,232,232)"  >&#160;</text>
<text x="726.0" y="414.0" fill="rgb(160,0,30)"  >█</text>
<text x="734.8" y="414.0" fill="rgb(232,232,232)"  >&#160;</text>
<text x="743.6" y="414.0" fill="rgb(210,10,45)"  >█</text>
<text x="752.4" y="414.0" fill="rgb(232,232,232)"  >&#160;</text>
<text x="761.2" y="414.0" fill="rgb(255,0,51)"  >█</text>
<text x="770.0" y="414.0" fill="rgb(232,232,232)"  >&#160;</text>
<text x="778.8" y="414.0" fill="rgb(255,80,80)"  >█</text>
<text x="787.6" y="414.0" fill="rgb(232,232,232)"  >&#160;</text>
<text x="796.4" y="414.0" fill="rgb(255,160,160)"  >▇</text>
<text x="805.2" y="414.0" fill="rgb(232,232,232)"  >&#160;</text>
<text x="814.0" y="414.0" fill="rgb(160,0,30)"  >▅</text>
<text x="822.8" y="414.0" fill="rgb(232,232,232)"  >&#160;</text>
<text x="22.0" y="432.0" fill="rgb(255,0,51)"  >╭──────────────────────────────────────────────────────────────────────────────────────────╮</text>
<text x="22.0" y="450.0" fill="rgb(255,0,51)"  >│</text>
<text x="30.8" y="450.0" fill="rgb(232,232,232)"  >&#160;</text>
<text x="39.6" y="450.0" fill="rgb(255,140,140)" font-weight="700" >00:31</text>
<text x="83.6" y="450.0" fill="rgb(232,232,232)"  >&#160;</text>
<text x="92.4" y="450.0" fill="rgb(255,0,51)"  >━</text>
<text x="101.2" y="450.0" fill="rgb(255,16,61)"  >━</text>
<text x="110.0" y="450.0" fill="rgb(255,31,71)"  >━</text>
<text x="118.8" y="450.0" fill="rgb(255,47,81)"  >━</text>
<text x="127.6" y="450.0" fill="rgb(255,62,91)"  >━</text>
<text x="136.4" y="450.0" fill="rgb(255,78,100)"  >━</text>
<text x="145.2" y="450.0" fill="rgb(255,93,110)"  >━</text>
<text x="154.0" y="450.0" fill="rgb(255,109,120)"  >━</text>
<text x="162.8" y="450.0" fill="rgb(255,124,130)"  >━</text>
<text x="171.6" y="450.0" fill="rgb(255,140,140)"  >━</text>
<text x="180.4" y="450.0" fill="rgb(255,255,255)" font-weight="700" >●</text>
<text x="189.2" y="450.0" fill="rgb(175,130,140)"  >───────────────────────────────────────────────────────────</text>
<text x="708.4" y="450.0" fill="rgb(232,232,232)"  >&#160;</text>
<text x="717.2" y="450.0" fill="rgb(255,0,51)"  >03:37</text>
<text x="761.2" y="450.0" fill="rgb(232,232,232)"  >&#160;</text>
<text x="770.0" y="450.0" fill="rgb(175,130,140)"  >(15%)</text>
<text x="814.0" y="450.0" fill="rgb(232,232,232)"  >&#160;</text>
<text x="822.8" y="450.0" fill="rgb(255,0,51)"  >│</text>
<text x="22.0" y="468.0" fill="rgb(255,0,51)"  >│</text>
<text x="30.8" y="468.0" fill="rgb(232,232,232)"  >&#160;&#160;</text>
<text x="48.4" y="468.0" fill="rgb(255,0,51)"  >SPD:&#160;1.00x</text>
<text x="136.4" y="468.0" fill="rgb(232,232,232)"  >&#160;&#160;</text>
<text x="154.0" y="468.0" fill="rgb(175,130,140)"  >SYNC:&#160;+0.0s</text>
<text x="250.8" y="468.0" fill="rgb(232,232,232)"  >&#160;&#160;</text>
<text x="268.4" y="468.0" fill="rgb(175,130,140)"  >LOOP:&#160;OFF</text>
<text x="347.6" y="468.0" fill="rgb(232,232,232)"  >&#160;&#160;</text>
<text x="365.2" y="468.0" fill="rgb(255,68,68)"  >VIZ:&#160;BARS</text>
<text x="444.4" y="468.0" fill="rgb(232,232,232)"  >&#160;&#160;&#160;&#160;&#160;&#160;&#160;&#160;&#160;&#160;&#160;&#160;&#160;&#160;&#160;&#160;&#160;&#160;&#160;&#160;&#160;&#160;&#160;&#160;&#160;&#160;&#160;&#160;&#160;&#160;&#160;&#160;&#160;&#160;&#160;&#160;&#160;&#160;&#160;&#160;&#160;&#160;&#160;</text>
<text x="822.8" y="468.0" fill="rgb(255,0,51)"  >│</text>
<text x="22.0" y="486.0" fill="rgb(255,0,51)"  >│</text>
<text x="30.8" y="486.0" fill="rgb(232,232,232)"  >&#160;&#160;</text>
<text x="48.4" y="486.0" fill="rgb(255,140,140)"  >Space</text>
<text x="92.4" y="486.0" fill="rgb(232,232,232)"  >:Play/Pause&#160;&#160;</text>
<text x="206.8" y="486.0" fill="rgb(255,140,140)"  >←/→</text>
<text x="233.2" y="486.0" fill="rgb(232,232,232)"  >:Seek&#160;&#160;</text>
<text x="294.8" y="486.0" fill="rgb(255,140,140)"  >↑/↓</text>
<text x="321.2" y="486.0" fill="rgb(232,232,232)"  >:Vol&#160;&#160;</text>
<text x="374.0" y="486.0" fill="rgb(255,140,140)"  >N/B</text>
<text x="400.4" y="486.0" fill="rgb(232,232,232)"  >:Next/Prev&#160;&#160;</text>
<text x="506.0" y="486.0" fill="rgb(255,140,140)"  >/</text>
<text x="514.8" y="486.0" fill="rgb(232,232,232)"  >:Search&#160;&#160;</text>
<text x="594.0" y="486.0" fill="rgb(255,140,140)"  >P</text>
<text x="602.8" y="486.0" fill="rgb(232,232,232)"  >:Playlists&#160;&#160;</text>
<text x="708.4" y="486.0" fill="rgb(255,140,140)"  >Q</text>
<text x="717.2" y="486.0" fill="rgb(232,232,232)"  >:Queue&#160;&#160;&#160;&#160;&#160;&#160;</text>
<text x="822.8" y="486.0" fill="rgb(255,0,51)"  >│</text>
<text x="22.0" y="504.0" fill="rgb(255,0,51)"  >╰──────────────────────────────────────────────────────────────────────────────────────────╯</text>
</g>
</svg>
